<svg xmlns="http://www.w3.org/2000/svg" viewBox="0 0 512 512">
  <path d="M413.491 360.018a25.988 25.988 0 0 1-7.635 18.434 26.008 26.008 0 0 1-7.383 5.193c-9.664 4.517-21.518 2.786-29.485-5.193l-74.504-74.492 6.294 6.305 76.476 76.464c.08.08.161.16.229.241 4.941 5.056 7.406 11.624 7.406 18.193 0 6.672-2.545 13.355-7.635 18.445a26.06 26.06 0 0 1-7.383 5.182c-9.664 4.517-21.518 2.797-29.497-5.182l-19.431-19.42c4.884 5.044 7.314 11.579 7.314 18.101a25.988 25.988 0 0 1-7.635 18.434 26.176 26.176 0 0 1-7.371 5.182c-9.664 4.517-21.518 2.797-29.497-5.182l-24.991-24.991c10.042 10.191 9.997 26.596-.138 36.73-.16.161-.332.332-.504.482-5.021 4.78-11.487 7.165-17.941 7.165-6.672 0-13.344-2.545-18.434-7.646l-105.41-105.41-8.953-8.942-16.233-16.233a162.956 162.956 0 0 1-46.841-98.303L0 179.266l52.826-53.708 72.452-73.667 50.615 50.615c8.875 8.875 22.426 11.01 33.65 5.39a63.268 63.268 0 0 1 28.322-6.677c6.511 0 13.023.997 19.294 3.004a84.298 84.298 0 0 0-15.373 12.163l63.533 30.471 7.738 50.154s5.829-40.794-10.919-12.066l37.286 5.187c.092.092-16.726 27.422-16.623 27.513l79.64 120.52 3.416 3.416a26.003 26.003 0 0 1 7.634 18.437z" fill="#ffd3ae"/>
  <path fill="#995c0d" d="M219.614 450.33l-1.628 1.628a25.988 25.988 0 0 1-18.434 7.635 25.988 25.988 0 0 1-18.434-7.635c-10.18-10.191-10.18-26.699 0-36.879l1.628-1.616 25.618 12.255 11.25 24.612zM144.262 374.978l-.011.011a22.255 22.255 0 0 1-1.651 1.502c-10.237 8.655-25.576 8.139-35.229-1.502a25.988 25.988 0 0 1-7.635-18.434 25.988 25.988 0 0 1 7.635-18.434l.011-.011 16.138 4.494 14.138 11.272 6.604 21.102zM144.262 374.978l29.89 12.813 7.463 24.541-2.732 2.427c-10.226 9.24-26.035 8.93-35.893-.929a26.032 26.032 0 0 1-7.635-18.445c0-4.434 1.123-8.868 3.372-12.837 1.135-2.004 4.986-7.018 5.524-7.557l.011-.013z"/>
  <path d="M512 177.157l-46.417 46.417a163.12 163.12 0 0 1-6.213 30.632v.011a163.088 163.088 0 0 1-40.639 67.66l-16.29 16.29-78.837-78.837-47.243-47.243c-.103-.092-.183-.172-.275-.264l-.39-.39-.023-.023-.344-.344-17.104-17.116-13.115 13.115c-11.418 11.418-26.378 17.127-41.35 17.127-14.96 0-29.921-5.709-41.339-17.127-3.118-3.13-3.118-8.197 0-11.315l79.364-79.364a84.255 84.255 0 0 1 15.373-12.163c13.482-8.334 28.82-12.496 44.147-12.496 14.616 0 29.244 3.783 42.267 11.349 11.464 6.672 26.046 4.517 35.423-4.861l31.17-31.159L512 177.157z" fill="#b27214"/>
  <g fill="#995c0d">
    <path d="M354.509 238.5l-28.27 21.942-2.637-1.112-47.243-47.243c-.103-.092-.183-.172-.275-.264l-.39-.39c1.273 1.182 44.951 40.927 78.815 27.067z"/>
    <path d="M459.369 254.217a163.088 163.088 0 0 1-40.639 67.66l-16.29 16.29L300.812 236.54l-.562-2.843s111.586 89.418 159.107 20.52h.012z"/>
  </g>
  <g fill="#e5b48f">
    <path d="M258.121 452.944c-5.021 4.78-11.487 7.165-17.941 7.165-6.672 0-13.344-2.545-18.434-7.646l-105.41-105.41-8.953-8.942-16.233-16.233a162.956 162.956 0 0 1-46.841-98.303L0 179.266l52.826-53.708 14.412 48.039c4.924 16.412 7.277 33.458 7.37 50.592.064 11.83 1.975 27.019 9.361 40.458 9.544 17.368 108.533 126.587 174.152 188.297z"/>
    <path d="M313.251 445.905c-9.664 4.517-21.518 2.797-29.497-5.182l-24.991-24.991-66.02-66.02c-3.359-3.347-3.359-8.793 0-12.152 3.347-3.359 8.793-3.359 12.152 0l108.356 108.345zM377.483 386.969l-76.705-76.705 76.476 76.464c.08.081.16.161.229.241z"/>
    <path d="M368.988 378.451l-74.504-74.492 6.294 6.305-32.58-32.569a8.61 8.61 0 0 1-.011-12.163 8.6 8.6 0 0 1 12.163 0l32.592 32.58 85.532 85.532c-9.665 4.517-21.519 2.786-29.486-5.193zM369.871 428.789c-9.664 4.517-21.518 2.797-29.497-5.182l-19.431-19.42-83.618-83.629c-3.359-3.347-3.359-8.793 0-12.152 3.347-3.359 8.793-3.359 12.152 0l120.394 120.383z"/>
  </g>
  <path fill="#995c0d" d="M258.224 193.952l18.342-18.343-9.46 27.231z"/>
</svg>
