<svg xmlns="http://www.w3.org/2000/svg" viewBox="0 -31 480 479">
  <path d="M312 112.5v-80H24v256h288zm-232 48H48v-40 40zm80 40l-48-48v-32h32c8.836 0 16 7.164 16 16s-7.164 16-16 16h-32zm56-40h-32v40-80 40zm64 0h-32v40-80 40zm0 0" fill="#ff3051"/>
  <path d="M344 136.5h32l40 56h-72zm48-32h-80v184h144v-88zm0 0" fill="#ffda44"/>
  <path d="M328 32.5V.5H8v32zm0 0" fill="#ab2300"/>
  <path d="M312 288.5H8v64h72c0-22.09 17.91-40 40-40s40 17.91 40 40h192c0-22.09 17.91-40 40-40s40 17.91 40 40h40v-64zm0 0" fill="#acabb1"/>
  <path d="M392 312.5c-22.09 0-40 17.91-40 40-.02 2.688.25 5.371.8 8 3.786 18.645 20.177 32.04 39.2 32.04 19.023 0 35.414-13.395 39.2-32.04.55-2.629.82-5.313.8-8 0-22.09-17.91-40-40-40zm0 0M120 312.5c-22.09 0-40 17.91-40 40-.02 2.688.25 5.371.8 8 3.786 18.645 20.177 32.04 39.2 32.04 19.023 0 35.414-13.395 39.2-32.04.55-2.629.82-5.313.8-8 0-22.09-17.91-40-40-40zm0 0" fill="#787680"/>
  <path d="M376 136.5h-32v56h72zm0 0" fill="#c6c5ca"/>
  <path d="M160 136.5c0-8.836-7.164-16-16-16h-32v32h32c8.836 0 16-7.164 16-16zm0 0" fill="#ff3051"/>
  <path d="M392 400.5c-22.8-.031-42.45-16.066-47.047-38.398A45.57 45.57 0 0 1 344 352.5c0-26.508 21.492-48 48-48s48 21.492 48 48a45.928 45.928 0 0 1-.977 9.695C434.398 384.488 414.77 400.48 392 400.5zm0-80c-17.672 0-32 14.328-32 32-.02 2.117.188 4.23.617 6.305 2.977 14.949 16.082 25.722 31.32 25.75 15.243.03 28.391-10.696 31.422-25.63.442-2.113.657-4.269.641-6.425 0-17.672-14.328-32-32-32zm0 0M120 400.5c-22.8-.031-42.45-16.066-47.047-38.398A45.57 45.57 0 0 1 72 352.5c0-26.508 21.492-48 48-48s48 21.492 48 48a45.928 45.928 0 0 1-.977 9.695C162.398 384.488 142.77 400.48 120 400.5zm0-80c-17.672 0-32 14.328-32 32-.02 2.117.188 4.23.617 6.305 2.977 14.949 16.082 25.722 31.32 25.75 15.243.03 28.391-10.696 31.422-25.63.442-2.113.657-4.269.641-6.425 0-17.672-14.328-32-32-32zm0 0" fill="#57565c"/>
  <path d="M456 224.5v16H344a8 8 0 0 1 0-16zm0 0" fill="#ed1c24"/>
  <path d="M48 208.5a8 8 0 0 1-8-8v-80a8 8 0 0 1 8-8h40a8 8 0 0 1 0 16H56v72a8 8 0 0 1-8 8zm0 0" fill="#f1f2f2"/>
  <path d="M80 168.5H48a8 8 0 0 1 0-16h32a8 8 0 0 1 0 16zm0 0M144 160.5h-32a8 8 0 0 1-8-8v-32a8 8 0 0 1 8-8h32c13.254 0 24 10.746 24 24s-10.746 24-24 24zm-24-16h24a8 8 0 0 0 0-16h-24zm0 0" fill="#f1f2f2"/>
  <path d="M160 208.5a8.001 8.001 0 0 1-5.656-2.344L120 171.812V200.5a8 8 0 0 1-16 0v-48a8.002 8.002 0 0 1 4.938-7.39 8.007 8.007 0 0 1 8.718 1.734l48 48a8.007 8.007 0 0 1 1.735 8.719A8.002 8.002 0 0 1 160 208.5zm0 0M224 208.5h-40a8 8 0 0 1-8-8v-80a8 8 0 0 1 8-8h40a8 8 0 0 1 0 16h-32v64h32a8 8 0 0 1 0 16zm0 0" fill="#f1f2f2"/>
  <path d="M216 168.5h-32a8 8 0 0 1 0-16h32a8 8 0 0 1 0 16zm0 0M288 208.5h-40a8 8 0 0 1-8-8v-80a8 8 0 0 1 8-8h40a8 8 0 0 1 0 16h-32v64h32a8 8 0 0 1 0 16zm0 0" fill="#f1f2f2"/>
  <path d="M280 168.5h-32a8 8 0 0 1 0-16h32a8 8 0 0 1 0 16zm0 0" fill="#f1f2f2"/>
  <path d="M472 416.5H8a8 8 0 0 1 0-16h464a8 8 0 0 1 0 16zm0 0" fill="#57565c"/>
</svg>
