<svg xmlns="http://www.w3.org/2000/svg" viewBox="0 0 512 512">
  <path d="M506.028 261.972C506.028 399.181 395.003 512 256 512 117.358 512 5.972 399.522 5.972 261.972 5.972 123.884 117.913 11.943 256 11.943c138.344 0 250.028 112.178 250.028 250.029z" fill="#ff5a5f"/>
  <path d="M491.984 214.271c-.806-46.017-9.51-55.892-14.58-131.497-1.2-17.782-8.69-31.029-19.942-40.168 0 0-55.014-40.12-70.892-42.606 0 0-31.789 8.031-49.1 13.646a15.822 15.822 0 0 0-10.724 12.323c-.129.673-.2 1.371-.237 2.066-.811 18.299-.955 12.688 8.466 44.423 0 0 12.891 18.71 33.07 9.625 11.426 8.096 14.62.597 54.362 7.715 1.287 6.438 3.912 14.596 4.719 19.679 1.667 9.141.186 16.833-.071 17.413-8.903 60.553-38.736 101.625-44.903 126.652-.573 2.118-3.949 2.224-4.79-.196-6.065-17.502-22.283-26.321-26.321-28.771-17.377-10.557-46.295-13.692-66.71-14.516l-2.288-1.268c-5.182-4.797-14.009-19.279-28.937-33.109-15.074-13.952-36.589-27.568-67.678-31.057l-19.282-2.17-125.292 37.038c-.027.175-.058.34-.073.51a265.616 265.616 0 0 0-2.295 18.931l123.212 96.333-.645.461c39.839 29.075 100.342 88.919 209.446 82.561l12.473-1.796c.004.01-.006.014-.006.014 49.88 2.899 35.18 2.58 66.211 1.777 16.722-2.177 29.26-16.377 29.346-33.233.124-26.802 14.394-77.888 13.461-130.78z" fill="#ffc396"/>
  <path d="M478.666 340.494c1.427-26.832 13.351-72.938 13.36-121.149-11.269 39.618-18.423 80.757-37.931 118.365a18.496 18.496 0 0 1-15.579 9.97c-10.724.484-34.337 1.117-52.516-1.406-4.1-.569-8.293-.311-12.25.912-43.705 13.502-116.883-23.44-141.518-49.719-70.405-39.491-122.271-94.017-151.528-129.753l-39.852 11.78c-.027.175-.057.34-.073.51a265.04 265.04 0 0 0-2.295 18.931l123.212 96.334-.645.461c39.839 29.075 100.342 88.919 209.446 82.561l12.473-1.796c.004.01-.006.014-.006.014 49.88 2.899 35.18 2.58 66.211 1.777 16.722-2.178 29.26-16.377 29.346-33.232a89.418 89.418 0 0 1 .145-4.56z" fill="#ffaf82"/>
  <path d="M219.307 151.525l-60.02 173.072c-18.408 53.064-19.993 115.44-20.497 158.306C59.612 440.819 5.972 357.432 5.972 261.975c0-64.712 24.582-123.682 64.917-168.071 30.149 3.838 66.852 5.927 113.783 27.731l27.329 12.687c6.483 3.014 9.642 10.443 7.306 17.203z" fill="#1e8ce6"/>
  <path d="M165.657 306.23l-6.369 18.367c-11.957 34.47-16.813 72.871-18.892 107.29C68.245 381.098 21.097 297.165 21.097 202.223c0-10.29.556-20.446 1.636-30.437a249.46 249.46 0 0 1 35.829-63.22c13.202 86.711 53.3 158.934 107.095 197.664z" fill="#1478d2"/>
  <path d="M382.151 253.537c2.792-11.333 10.439-25.957 18.798-44.19 10.098-22.028 21.237-49.325 26.106-82.455.257-.587 1.739-8.273.072-17.42-.803-5.083-3.437-13.232-4.723-19.674-5.752-1.029-10.732-1.749-15.085-2.264l22.576-3.673c44.76 61.223-47.795 169.872-47.744 169.676z" fill="#ff9b69"/>
  <path d="M443.948 78.034c-9.975 11.33-21.539 11.764-21.539 11.764-39.743-7.118-42.937.381-54.362-7.715-20.179 9.085-33.07-9.625-33.07-9.625-9.42-31.734-9.276-26.124-8.466-44.423.037-.696.108-1.393.237-2.066 12.832 11.567 30.97 25.138 53.306 34.568a9.32 9.32 0 0 1 5.396 6.249c.312.692.49 4.879 4.741 6.697 8.162 3.488 29.764 10.803 52.217 2.343 1.349-.51 2.494 1.123 1.54 2.208z" fill="#ffaf82"/>
</svg>
