<svg xmlns="http://www.w3.org/2000/svg" viewBox="0 0 512 512">
  <path d="M299.201 103.26a7.883 7.883 0 0 0-11.099-1.092 391.355 391.355 0 0 0-27.108 24.47c-6.239 6.184-11.695 12.149-16.5 17.619-4.233-20.153-15.355-50.67-44.419-79.991a7.884 7.884 0 0 0-11.152-.048 7.886 7.886 0 0 0-.049 11.152c22.616 22.815 32.937 46.401 37.612 62.17 5.092 17.171 4.803 29.104 4.8 29.199a7.24 7.24 0 0 0-.005.256l-.025 7.71a386.601 386.601 0 0 0-19.872-16.562 304.927 304.927 0 0 0-24.654-17.296 7.886 7.886 0 0 0-10.875 2.472 7.885 7.885 0 0 0 2.472 10.875 288.785 288.785 0 0 1 23.373 16.398c12.633 9.828 22.694 18.987 29.488 25.565l-.487 151.684a7.887 7.887 0 0 0 7.861 7.912h.026a7.887 7.887 0 0 0 7.886-7.86l.494-153.776a7.907 7.907 0 0 0 .007-2.299l.079-24.662c.008-.29.018-.864.008-1.696l.876-1.028c6.723-7.903 14.344-16.861 24.162-26.592a375.312 375.312 0 0 1 26.011-23.481 7.888 7.888 0 0 0 1.09-11.099z" fill="#4d984e"/>
  <path d="M475.506 24.64c-39.2 29.857-72.79 69.347-114.182 95.59-27.701 17.563-63.482 23.324-94.779 12.01-13.335-37.631 10.834-76.602 42.299-96.302C355.973 6.43 423.841 8.078 475.506 24.64z" fill="#80c56e"/>
  <path d="M266.546 132.24c31.296 11.314 67.078 5.553 94.779-12.01 41.391-26.243 74.982-65.733 114.182-95.59-80.891 15.895-151.907 51.046-208.961 107.6z" fill="#66ad66"/>
  <path d="M40.413 102.103c32.1 18.855 60.862 45.442 94.279 61.388 22.364 10.672 49.724 11.761 72.177.448 6.604-29.431-15.045-56.48-40.426-68.415-38.015-17.877-88.772-10.511-126.03 6.579z" fill="#80c56e"/>
  <path d="M40.413 102.103c32.1 18.855 60.862 45.442 94.279 61.388 22.364 10.672 49.724 11.761 72.177.448 6.604-29.431-15.045-56.48-40.426-68.415-38.015-17.877-88.772-10.511-126.03 6.579z" fill="#80c56e"/>
  <path d="M90.636 325.943a47.277 47.277 0 0 1 10.618 1.193c9.647-26.709 35.196-45.824 65.238-45.882a69.93 69.93 0 0 1 12.924 1.193c10.559-24.83 35.148-42.266 63.837-42.321 28.689-.055 53.345 17.286 63.999 42.075a69.776 69.776 0 0 1 12.92-1.243c29.667-.057 55.012 18.493 65.03 44.641a47.695 47.695 0 0 1 4.543-.231c26.077-.05 47.257 21.048 47.307 47.125.05 26.077-21.048 47.257-47.125 47.307l-299.108.575c-26.077.05-47.257-21.049-47.307-47.125-.051-26.077 21.048-47.257 47.124-47.307z" fill="#ba7d60"/>
  <path d="M389.744 325.368a47.678 47.678 0 0 0-4.543.231c-10.018-26.148-35.363-44.698-65.03-44.641a69.785 69.785 0 0 0-12.92 1.243c-10.654-24.79-35.31-42.131-63.999-42.076-28.368.055-52.718 17.108-63.468 41.496 8.517-3.75 17.93-5.841 27.832-5.86 28.689-.055 53.345 17.286 63.999 42.075a69.776 69.776 0 0 1 12.92-1.243c29.667-.057 55.012 18.493 65.03 44.641a47.695 47.695 0 0 1 4.543-.231c26.077-.05 47.257 21.048 47.307 47.125a47.293 47.293 0 0 1-1.167 10.505c21.099-4.752 36.846-23.613 36.803-46.141-.051-26.076-21.23-47.174-47.307-47.124z" fill="#a56a58"/>
  <path d="M38.915 335l105.678 70.725 31.495-1.767 1.233-12.397c1.835-18.453 16.043-33.263 34.404-35.861l84.384-9.716a151.225 151.225 0 0 0 55.177-19.204 151.238 151.238 0 0 1 76.366-20.696h60.84v138.874l-160.796 52.479c-6.077 1.716-12.459 2.229-18.696 1.244l-.112-.018-161.884-23.335a71.638 71.638 0 0 1-33.982-15.226L8.395 374.414c-9.39-8.338-11.131-22.351-4.066-32.733 7.729-11.359 23.182-14.344 34.586-6.681z" fill="#fed9a8"/>
  <g fill="#f4c892">
    <path d="M309 452.978c-.037-.006-161.302-2.982-206.515-37.155L3.686 342.726c-6.274 10.262-4.372 23.624 4.709 31.688l104.628 85.69a71.633 71.633 0 0 0 33.982 15.226l161.884 23.335.112.018c6.237.985 12.62.472 18.696-1.244l160.796-52.479v-50.961l-160.796 57.736c-6.077 1.715-12.46 2.229-18.697 1.243z"/>
    <path d="M355.364 391.903l-179.277 12.055 147.47-20.837z"/>
  </g>
  <path d="M457.435 492.13h45.178a9.387 9.387 0 0 0 9.387-9.387V283.499a9.387 9.387 0 0 0-9.387-9.387h-45.178a9.387 9.387 0 0 0-9.387 9.387v199.245a9.386 9.386 0 0 0 9.387 9.386z" fill="#4fb7a8"/>
  <path d="M502.613 274.111h-31.976a9.387 9.387 0 0 1 9.387 9.387v199.245a9.387 9.387 0 0 1-9.387 9.387h31.976a9.387 9.387 0 0 0 9.387-9.387V283.498a9.387 9.387 0 0 0-9.387-9.387z" fill="#42a094"/>
  <path d="M166.444 95.524c-38.016-17.877-88.773-10.511-126.031 6.579 62.016 4.61 118.055 24.94 165.91 62.1.181-.09.365-.173.546-.264 6.604-29.432-15.045-56.48-40.425-68.415z" fill="#66ad66"/>
</svg>
