<svg xmlns="http://www.w3.org/2000/svg" viewBox="0 0 512 512">
  <path d="M151.467 353.067c12.8 11.733 23.467 25.6 30.933 40.533h146.133c7.467-14.933 18.133-29.867 30.933-40.533 38.4-33.067 60.8-85.333 52.267-141.867-9.6-70.4-68.267-126.933-138.667-134.4C177.067 66.133 96 140.8 96 234.667c1.067 46.933 22.4 89.6 55.467 118.4z" fill="#e8eae9"/>
  <path d="M213.333 488.533C221.867 502.4 237.867 512 256 512c18.133 0 33.067-9.6 42.667-23.467h-85.334z" fill="#415a6b"/>
  <path d="M329.6 471.467v-51.2H182.4v51.2c0 11.733 9.6 22.4 22.4 22.4h103.467C320 492.8 329.6 483.2 329.6 471.467z" fill="#344a5e"/>
  <path fill="#415a6b" d="M333.867 390.4H178.133c-8.533 0-14.933 6.4-14.933 14.933s6.4 14.933 14.933 14.933h155.733c8.533 0 14.933-6.4 14.933-14.933.001-8.533-7.466-14.933-14.932-14.933zM333.867 436.267H178.133c-8.533 0-14.933 6.4-14.933 14.933s6.4 14.933 14.933 14.933h155.733c8.533 0 14.933-6.4 14.933-14.933.001-7.467-7.466-14.933-14.932-14.933z"/>
  <path d="M158.933 260.267c-11.733-4.267-21.333-13.867-25.6-25.6-1.067-3.2-2.133-7.467-2.133-10.667 0-11.733 4.267-45.867 14.933-59.733 10.667-13.867 40.533-37.333 71.467-44.8S278.4 108.8 320 133.333s56.533 78.933 60.8 92.8c4.267 13.867-5.333 49.067-25.6 56.533 0 0-10.667 29.867-48 32 0 0 0 11.733-5.333 9.6-5.333-2.133-13.867-12.8-13.867-12.8s-10.667 2.133-16-16c0 0-8.533 1.067-11.733 2.133 0 0-20.267 16-40.533 9.6-21.333-6.4-33.067-25.6-33.067-30.933s4.267-12.8 4.267-12.8-13.867 3.201-32.001-3.199z" fill="#ffd15c"/>
  <g fill="#f3705a">
    <path d="M230.4 296.533c-3.2 1.067-7.467 0-10.667-2.133s-6.4-5.333-7.467-7.467V284.8v-2.133c0-4.267-1.067-9.6 0-12.8 1.067-5.333 3.2-10.667 7.467-13.867 1.067-1.067 1.067-2.133 0-2.133-1.067-1.067-1.067-1.067-2.133 0-4.267 4.267-7.467 9.6-8.533 16v10.667C208 279.467 208 278.4 206.933 278.4h-7.467c-1.067 0-2.133 1.067-2.133 2.133s1.067 2.133 1.067 2.133h7.467s1.067 2.133 2.133 3.2c1.067 1.067 1.067 2.133 1.067 2.133 2.133 5.333 7.467 9.6 9.6 10.667 3.2 2.133 6.4 2.133 9.6 2.133h4.267c1.067 0 1.067-1.067 1.067-2.133-2.134-1.066-3.201-2.133-3.201-2.133z"/>
    <path d="M348.8 258.133c-5.333 4.267-18.133 4.267-21.333 4.267-1.067-3.2-2.133-5.333-2.133-7.467 2.133 0 3.2-1.067 5.333-2.133 1.067-1.067 1.067-2.133 0-2.133-1.067-1.067-1.067-1.067-2.133 0-1.067 1.067-3.2 1.067-5.333 2.133-8.533 1.067-17.067 0-25.6-1.067 0-2.133 1.067-4.267 1.067-6.4l1.067-1.067c2.133-2.133 3.2-4.267 5.333-6.4 2.133-4.267 3.2-7.467 5.333-11.733 3.2 3.2 10.667 10.667 18.133 10.667-1.067 3.2-2.133 8.533-4.267 10.667-4.267-2.133-4.267-1.067-4.267 0l1.067 1.067h1.067c4.267-3.2 5.333-10.667 6.4-13.867 2.133-1.067 3.2-2.133 5.333-3.2 1.067-1.067 2.133-3.2 3.2-4.267 1.067 2.133 1.067 4.267 2.133 6.4v9.6c0 2.133 0 4.267-1.067 6.4s-2.133 3.2-3.2 4.267c-1.067 0-1.067 1.067-1.067 2.133 0 1.067 1.067 1.067 1.067 1.067H336c2.133-1.067 4.267-3.2 5.333-6.4 1.067-2.133 1.067-5.333 1.067-7.467v-10.667c0-3.2-1.067-6.4-3.2-9.6 4.267-8.533 4.267-13.867 4.267-13.867 0-1.067-1.067-2.133-2.133-1.067-1.067 0-1.067 1.067-1.067 2.133 0 0 0 4.267-4.267 11.733l-1.067 1.067c-1.067 2.133-2.133 4.267-4.267 6.4-2.133 2.133-3.2 3.2-6.4 3.2-7.467 0-14.933-8.533-17.067-10.667 2.133-10.667 2.133-22.4 2.133-29.867 5.333-1.067 10.667-3.2 16-6.4 1.067 0 1.067-1.067 0-2.133 0-1.067-1.067-1.067-2.133 0-6.4 4.267-13.867 6.4-22.4 6.4-4.267 0-8.533-1.067-11.733-3.2-4.267-2.133-6.4-5.333-8.533-8.533 0-1.067-1.067-1.067-2.133-1.067s-1.067 1.067-1.067 2.133c2.133 3.2 4.267 5.333 6.4 7.467 0 4.267 0 8.533-1.067 13.867-1.067 6.4-2.133 11.733-5.333 17.067-3.2 4.267-8.533 7.467-12.8 5.333l-1.067-1.067c-1.067-1.067-3.2-2.133-4.267-2.133h-1.067c-1.067 0-1.067-1.067-1.067-1.067C256 217.6 256 216.533 256 215.467c-1.067-3.2-2.133-6.4-2.133-10.667 0-1.067-1.067-2.133-2.133-2.133-1.067 0-1.067 1.067-1.067 2.133 0 4.267 1.067 7.467 2.133 11.733 1.067 1.067 1.067 3.2 2.133 4.267-4.267 2.133-9.6 4.267-12.8 7.467-2.133 2.133-3.2 3.2-4.267 5.333-2.133 3.2-4.267 5.333-7.467 7.467-3.2 2.133-7.467 1.067-10.667 1.067h-1.067c-2.133 0-4.267-1.067-5.333 0-6.4 0-12.8 6.4-13.867 13.867 0 1.067 0 2.133 1.067 2.133s1.067-1.067 1.067-1.067c1.067-5.333 5.333-9.6 10.667-10.667h6.4c3.2 1.067 8.533 1.067 11.733-1.067 3.2-2.133 6.4-5.333 8.533-8.533 1.067-2.133 2.133-3.2 4.267-5.333 3.2-3.2 8.533-5.333 12.8-7.467 1.067 0 2.133-1.067 2.133-1.067 1.067 0 2.133 1.067 3.2 1.067s1.067 1.067 2.133 1.067c6.4 3.2 12.8-1.067 17.067-6.4 3.2-5.333 5.333-11.733 5.333-18.133 1.067-4.267 1.067-8.533 1.067-12.8 4.267 2.133 8.533 3.2 12.8 3.2h5.333c0 10.667 0 29.867-7.467 43.733-1.067 2.133-3.2 4.267-4.267 6.4-2.133 2.133-4.267 3.2-6.4 4.267-9.6 5.333-22.4 6.4-36.267 6.4-2.133 0-4.267 0-6.4-1.067-1.067 0-2.133-1.067-3.2-2.133-1.067-1.067-2.133-1.067-2.133-2.133-5.333-3.2-11.733-3.2-16 2.133-1.067 2.133-2.133 5.333-2.133 7.467 0 4.267 2.133 9.6 4.267 12.8l1.067 1.067 2.133 2.133c0 1.067 0 3.2-1.067 3.2-1.067 1.067-2.133 2.133-3.2 2.133h-1.067c-2.133 1.067-5.333 2.133-7.467 4.267-1.067 1.067-1.067 2.133 0 2.133l1.067 1.067h1.067c2.133-1.067 4.267-3.2 6.4-4.267h1.067c1.067-1.067 3.2-1.067 4.267-3.2 2.133-2.133 3.2-4.267 2.133-7.467 0-2.133-1.067-3.2-2.133-4.267v-1.067c-2.133-3.2-4.267-6.4-4.267-10.667 0-2.133 0-4.267 1.067-5.333 2.133-4.267 8.533-4.267 11.733-2.133 1.067 0 1.067 1.067 2.133 1.067 1.067 1.067 2.133 2.133 3.2 2.133 2.133 1.067 4.267 1.067 5.333 1.067 0 1.067 1.067 3.2 2.133 4.267 1.067 1.067 2.133 3.2 2.133 4.267V278.401h-2.133c-1.067 0-3.2 1.067-4.267 2.133l-1.067 4.267c-3.2 2.133-6.4 3.2-9.6 3.2h-5.333c-2.133 1.067-4.267 2.133-5.333 4.267 0 1.067 0 2.133 1.067 2.133h1.067c1.067 0 1.067 0 1.067-1.067s2.133-2.133 3.2-2.133h5.333c4.267 0 7.467-2.133 10.667-4.267l1.067-1.067c1.067-1.067 2.133-1.067 3.2-1.067H266.666c2.133 0 5.333 0 8.533-1.067 1.067 0 1.067-1.067 2.133-1.067 1.067-1.067 2.133-1.067 2.133-1.067 2.133 0 3.2 0 5.333 1.067 1.067 0 1.067 1.067 2.133 1.067 2.133 1.067 5.333 1.067 8.533 1.067 1.067 0 1.067-1.067 1.067-2.133s-1.067-1.067-2.133-1.067h-6.4c-1.067 0-1.067 0-2.133-1.067-2.133-1.067-4.267-2.133-7.467-1.067-1.067 0-2.133 1.067-3.2 2.133-1.067 0-1.067 1.067-2.133 1.067-2.133 1.067-4.267 1.067-6.4 0h-10.667v-8.533-7.467-2.133c2.133 1.067 4.267 2.133 7.467 3.2l7.467 3.2c2.133 1.067 4.267 2.133 6.4 2.133h11.733c1.067 0 2.133-1.067 3.2-1.067 7.467-2.133 14.933-4.267 23.467-4.267 1.067 0 1.067-1.067 1.067-2.133 0-1.067-1.067-2.133-2.133-2.133-8.533 0-16 2.133-23.467 4.267-1.067 0-2.133 1.067-3.2 1.067H277.332c-2.133 0-4.267-1.067-6.4-2.133l-7.467-3.2-9.6-3.2c0-1.067-1.067-2.133-1.067-3.2 0-1.067-1.067-1.067-1.067-2.133C265.6 256 278.4 253.867 288 248.533c1.067-1.067 2.133-1.067 3.2-2.133 0 3.2-1.067 7.467-3.2 9.6s-4.267 3.2-6.4 3.2h-14.934c-1.067 0-2.133 1.067-2.133 2.133s1.067 2.133 1.067 2.133h16c3.2-1.067 5.333-2.133 7.467-4.267 1.067-1.067 2.133-2.133 2.133-4.267C297.6 256 302.933 256 309.333 256h7.467c2.133 3.2 4.267 10.667 2.133 14.933-3.2 5.333-7.467 7.467-7.467 7.467-1.067 0-1.067 1.067-1.067 2.133 0 1.067 1.067 1.067 1.067 1.067h1.067s5.333-2.133 9.6-8.533c1.067-2.133 2.133-4.267 1.067-6.4 4.267 0 17.067-1.067 23.467-5.333 1.067-1.067 1.067-2.133 0-2.133 3.2-2.134 2.133-2.134 2.133-1.068zM372.267 252.8c-3.2-2.133-7.467-3.2-11.733-4.267-3.2-1.067-7.467-2.133-10.667 0-1.067 0-1.067 1.067-1.067 2.133 0 1.067 1.067 1.067 2.133 1.067 2.133-1.067 5.333-1.067 8.533 0 4.267 1.067 7.467 2.133 10.667 4.267h1.067c1.067 0 1.067 0 1.067-1.067 1.066 0 1.066-1.066 0-2.133z"/>
    <path d="M322.133 196.267c-1.067 0-2.133 0-2.133 1.067 0 0-3.2 7.467 1.067 11.733 2.133 2.133 4.267 3.2 7.467 3.2 3.2 0 5.333-3.2 7.467-6.4 1.067-2.133 2.133-4.267 2.133-5.333 1.067-3.2 2.133-4.267 2.133-4.267h2.133c1.066 0 1.067 1.067 2.133 2.133 0 1.067 0 3.2 1.067 5.333 1.067 5.333 1.067 9.6 2.133 10.667l1.067 1.067h1.067c1.067-1.067 1.067-2.133 0-2.133-1.067-1.067-1.067-6.4-2.133-9.6 0-2.133 0-4.267-1.067-5.333 0-2.133-2.133-4.267-3.2-5.333-2.133-1.067-3.2-1.067-5.333 0s-3.2 3.2-4.267 6.4c-1.067 1.067-1.067 3.2-2.133 5.333-1.067 3.2-3.2 4.267-5.333 5.333-1.067 0-3.2 0-4.267-2.133-3.2-3.2-1.067-8.533-1.067-8.533 2.133-1.068 2.133-2.135 1.066-3.201zM234.667 192c2.133-3.2 4.267-5.333 7.467-7.467 3.2-2.133 7.467-3.2 10.667-3.2 1.067 0 1.067-1.067 1.067-2.133s-1.067-1.067-2.133-1.067c-4.267 1.067-7.467 2.133-11.733 4.267s-7.467 5.333-9.6 8.533c-2.133 3.2-2.133 6.4-3.2 9.6-1.067 5.333-2.133 12.8 0 18.133 0 1.067 1.067 2.133 1.067 3.2 0 1.067 1.067 2.133 1.067 3.2 0 2.133 1.067 4.267 0 6.4 0 1.067 0 2.133 1.067 2.133h1.067c1.067 0 1.067 0 1.067-1.067 1.067-2.133 1.067-5.333 0-8.533 0-1.067-1.067-2.133-1.067-3.2 0-1.067-1.067-2.133-1.067-3.2-2.133-5.333-1.067-11.733 0-17.067 2.13-2.132 3.197-5.332 4.264-8.532z"/>
    <path d="M181.333 162.133c3.2-6.4 8.533-9.6 13.867-12.8 11.733-5.333 22.4-7.467 30.933-5.333 1.067 0 6.4 2.133 6.4 5.333s-2.133 6.4-5.333 8.533c-1.067 1.067-1.067 1.067 0 2.133 0 1.067 1.067 1.067 2.133 1.067 6.4-3.2 16-1.067 20.267 4.267l1.067 1.067c1.067 0 1.067-1.067 1.067-1.067 1.067-4.267 6.4-7.467 10.667-9.6h1.067c4.267-2.133 9.6-5.333 11.733-9.6 1.067-1.067 1.067-2.133 1.067-3.2 0-1.067 1.067-1.067 1.067-2.133 0-1.067 1.067-2.133 2.133-3.2 4.267 2.133 8.533 5.333 11.733 8.533 3.2 3.2 4.267 8.533 4.267 12.8-2.133 0-4.267 1.067-7.467 2.133-3.2 1.067-4.267 2.133-6.4 2.133s-3.2 1.067-5.333 2.133c-4.267 3.2-16 21.333-17.067 26.667-3.2-2.133-8.533-4.267-19.2-2.133-1.067 0-1.067 1.067-1.067 2.133 0 1.067 1.067 1.067 2.133 1.067 11.733-2.133 17.067 2.133 18.133 3.2 0 6.4 1.067 13.867 7.467 16 1.067 0 1.067 0 1.067-1.067s0-2.133-1.067-2.133c-7.467-2.133-5.333-14.933-5.333-16 1.067-5.333 11.733-22.4 14.933-24.533 2.133-1.067 3.2-1.067 4.267-2.133 1.067 0 3.2-1.067 6.4-2.133 6.4-2.133 11.733-3.2 14.933-2.133 3.2 1.067 13.867 8.533 17.067 11.733 1.067 2.133 2.133 3.2 2.133 4.267 0 1.067 0 2.133 1.067 3.2 1.067 1.067 3.2 1.067 5.333 2.133 2.133 0 5.333 1.067 9.6 2.133 6.4 2.133 7.467 5.333 7.467 5.333 0 1.067 1.067 1.067 2.133 1.067 1.067 0 1.067-1.067 1.067-2.133 0-1.067-1.067-4.267-9.6-7.467-4.267-2.133-7.467-2.133-10.667-2.133-1.067 0-3.2 0-3.2-1.067v-1.067c0-1.067 0-3.2-3.2-6.4s-14.933-11.733-19.2-12.8H294.4c0-4.267-1.067-8.533-4.267-12.8 1.067-3.2 5.333-5.333 8.533-4.267 1.067 0 2.133 1.067 3.2 1.067 1.067 0 1.067 0 2.133 1.067 3.2 1.067 7.467 1.067 10.667 0 1.067 0 1.067-1.067 1.067-2.133s-1.067-1.067-2.133-1.067c-3.2 1.067-6.4 1.067-9.6 0 5.333-2.133 5.333-2.133 4.267-2.133-1.067 0-3.2-1.067-4.267-1.067-4.267-1.067-8.533 2.133-10.667 5.333-3.2-3.2-7.467-6.4-10.667-7.467 2.133-2.133 4.267-3.2 6.4-4.267 1.067 0 1.067-1.067 1.067-2.133 0-1.067-1.067-1.067-2.133-1.067-5.333 2.133-9.6 6.4-12.8 11.733 0 1.067-1.067 1.067-1.067 2.133 0 1.067-1.067 2.133-1.067 3.2-2.133 4.267-6.4 6.4-10.667 8.533h-1.067c-4.267 2.133-8.533 5.333-10.667 9.6-2.133-2.133-5.333-4.267-8.533-5.333v-1.067c-1.067-4.267 0-8.533 2.133-11.733l1.067-1.067c1.067-1.067 2.133-3.2 3.2-5.333 0 0 0-1.067 3.2-2.133 1.067 0 2.133 0 4.267-1.067h1.067c2.133 0 4.267 0 5.333-2.133 2.133-1.067 3.2-3.2 3.2-5.333 1.067-2.133 1.067-4.267 1.067-5.333 0-1.067 0-2.133-1.067-2.133s-2.133 0-2.133 1.067c0 2.133 0 3.2-1.067 5.333 0 1.067-1.067 2.133-2.133 3.2-1.066 1.067-2.133 1.067-4.266 1.067h-1.067c-1.067 0-3.2 0-4.267 1.067-1.067 0-2.133 1.067-3.2 1.067 0-2.133-1.067-4.267-3.2-5.333-2.133-2.133-5.333-3.2-7.467-4.267-1.067 0-2.133 0-2.133 1.067s0 2.133 1.067 2.133c2.133 1.067 5.333 2.133 6.4 4.267 1.067 1.067 3.2 4.267 2.133 6.4 0 1.067-1.067 2.133-2.133 3.2l-1.067 1.067c-3.2 4.267-4.267 9.6-3.2 13.867h-5.333c1.067-2.133 2.133-4.267 2.133-7.467-1.067-4.267-4.267-7.467-8.533-8.533-9.6-3.2-20.267-1.067-33.067 5.333-5.333 3.2-12.8 6.4-14.933 13.867 0 1.067 0 2.133 1.067 2.133 1.067 2.132 2.133 2.132 2.133 1.065zM201.6 240c1.067-1.067 2.133-3.2 2.133-5.333l3.2-13.867c0-1.067 0-2.133-1.067-2.133s-2.133 0-2.133 1.067l-3.2 14.933c0 1.067-1.067 3.2-1.067 3.2-1.067 1.067-3.2 1.067-5.333 1.067-1.067 0-2.133-1.067-2.133-1.067-1.067-1.067-3.2-1.067-5.333-2.133-1.067 0-2.133 0-2.133 1.067s0 2.133 1.067 2.133 3.2 1.067 4.267 1.067c1.067 0 2.133 1.067 3.2 1.067 1.067 0 2.133 1.067 3.2 1.067 2.132-.002 4.265-.002 5.332-2.135z"/>
    <path d="M185.6 251.733c-4.267 0-8.533 0-12.8-1.067-4.267-1.067-7.467-5.333-8.533-8.533v-1.067c0-1.067 1.067-2.133 2.133-3.2 1.067 0 1.067-1.067 2.133-1.067 2.133-1.067 2.133-2.133 3.2-2.133 1.067-1.067 2.133-2.133 3.2-4.267 5.333-8.533 12.8-13.867 20.267-16h2.133c2.133-1.067 5.333-1.067 7.467-2.133 4.267-2.133 6.4-5.333 7.467-8.533v-6.4-3.2c0-4.267 1.067-7.467 3.2-10.667 2.133-2.133 4.267-4.267 7.467-5.333h2.133c1.067 0 1.067-1.067 1.067-2.133 0-1.067-1.067-1.067-2.133-1.067h-1.067c-1.067 0-3.2-1.067-4.267-3.2-1.067-2.133-1.067-5.333-1.067-8.533v-16c0-1.067-1.067-2.133-2.133-2.133-1.067 0-1.067 1.067-1.067 2.133v16c0 3.2 0 6.4 1.067 9.6 1.067 1.067 1.067 2.133 2.133 3.2-2.133 1.067-4.267 3.2-5.333 4.267-1.067 1.067-1.067 2.133-1.067 2.133-5.333-2.133-8.533-6.4-10.667-11.733s-1.067-11.733 0-17.067c0-1.067 0-2.133-1.067-2.133s-2.133 1.067-2.133 1.067c-1.067 6.4-1.067 12.8 1.067 19.2 2.133 5.333 6.4 10.667 11.733 13.867-1.067 2.133-1.067 4.267-1.067 7.467v3.2c0 2.133 1.067 4.267 0 5.333-1.067 3.2-4.267 5.333-5.333 6.4-2.133 1.067-4.267 1.067-6.4 2.133H195.2c-8.533 2.133-16 7.467-21.333 17.067l-3.2 3.2c-1.067 1.067-1.067 1.067-2.133 1.067-1.067 0-1.067 1.067-2.133 1.067l-2.133 2.133c-1.067-2.133-4.267-3.2-6.4-3.2-4.267-1.067-7.467-3.2-10.667-6.4-1.067-1.067-2.133-1.067-2.133 0-1.067 1.067 0 2.133 0 2.133 3.2 3.2 7.467 5.333 12.8 6.4 2.133 0 3.2 1.067 4.267 2.133v3.2c1.067 6.4 6.4 9.6 10.667 11.733 3.2 1.067 6.4 1.067 10.667 1.067h4.267c1.067 0 1.067-1.067 1.067-2.133-1.07 3.199-2.136 2.132-3.203 2.132z"/>
    <path d="M158.933 206.933l-10.667 7.467c-1.067 1.067-2.133 1.067-3.2 2.133-1.067 1.067-2.133 3.2-2.133 4.267 0 1.067 1.067 1.067 1.067 1.067 1.067 0 1.067-1.067 1.067-2.133 0-1.067 0-1.067 1.067-2.133l2.133-2.133L158.933 208c1.067 0 1.067-1.067 1.067-2.133 1.067 1.066 0 1.066-1.067 1.066zM149.333 201.6c1.067-3.2 2.133-5.333 4.267-6.4 1.067-1.067 4.267-2.133 6.4-1.067 1.067 0 1.067 1.067 2.133 2.133l1.067 1.067c2.133 2.133 3.2 2.133 5.333 2.133 1.067 0 3.2-1.067 4.267-2.133l1.067-1.067c0-1.067 1.067-1.067 1.067-1.067 2.133-2.133 5.333-2.133 8.533-1.067 3.2 1.067 5.333 2.133 8.533 4.267 1.067 0 2.133 0 2.133-1.067s0-2.133-1.067-2.133c-3.2-2.133-6.4-3.2-9.6-4.267-4.267-1.067-8.533 0-10.667 2.133l-2.133 2.133-1.067 1.067c-1.067 1.067-2.133 1.067-2.133 1.067-1.067 0-2.133 0-3.2-1.067L163.2 195.2c-1.067-1.067-2.133-2.133-3.2-2.133-3.2-1.067-6.4-1.067-9.6 1.067-2.133 2.133-4.267 5.333-5.333 7.467-1.067 1.067-1.067 3.2-2.133 3.2-1.067 1.067-3.2 0-4.267-1.067 0-1.067-1.067-1.067-2.133-1.067s-1.067 1.067 0 2.133c1.067 2.133 3.2 3.2 5.333 3.2 1.067 0 2.133 0 3.2-1.067 2.133-2.133 3.2-4.266 4.266-5.333zM139.733 196.267c1.067 0 1.067 0 1.067-1.067 1.067-3.2 4.267-4.267 7.467-5.333l1.067-1.067c3.2-1.067 5.333-2.133 8.533-4.267l1.067-1.067L160 182.4h1.067c1.067 1.067 6.4 3.2 9.6 0 2.133-1.067 2.133-3.2 3.2-5.333 0-1.067 1.067-2.133 1.067-3.2 1.067-2.133 3.2-3.2 6.4-4.267 2.133-1.067 5.333-1.067 8.533-1.067 1.067 0 1.067-1.067 1.067-2.133s-1.067-2.133-2.133-2.133c-3.2 0-6.4 0-8.533 1.067-2.133 1.067-5.333 2.133-8.533 5.333-1.067 4.267-1.067 5.333-1.067 6.4-1.067 1.067-1.067 3.2-2.133 4.267-1.067 1.067-3.2 1.067-6.4-1.067-1.067-1.067-3.2 0-4.267 1.067-1.067 0-1.067 1.067-2.133 1.067l-1.067 1.067c-2.133 2.133-4.267 3.2-7.467 4.267l-1.067 1.067c-3.2 1.067-6.4 3.2-8.533 7.467-.001-1.069-.001-.002 2.132-.002-1.066 0 0 0 0 0zM144 183.467h1.067c2.133 0 5.333-1.067 8.533-4.267l2.133-2.133c1.067-2.133 3.2-3.2 4.267-4.267 1.067 0 1.067-1.067 2.133-1.067 2.133-1.067 4.267-2.133 5.333-4.267s1.067-4.267 1.067-5.333v-1.067c1.067-5.333 2.133-9.6 5.333-12.8 1.067-1.067 0-2.133 0-2.133-1.067-1.067-2.133-1.067-2.133 0-3.2 4.267-5.333 9.6-6.4 14.933v1.067c0 1.067 0 3.2-1.067 4.267-1.067 1.067-2.133 2.133-4.267 2.133-1.067 0-2.133 1.067-2.133 1.067-2.133 1.067-3.2 3.2-5.333 4.267L150.4 176c-2.133 2.133-4.267 3.2-6.4 3.2-1.067 0-2.133 0-2.133 1.067 1.066 2.133 1.066 3.2 2.133 3.2zM361.6 252.8c-1.067-1.067-2.133-2.133-1.067-2.133 3.2-8.533 5.333-16 5.333-23.467 0-8.533-2.133-17.067-6.4-22.4-1.067-1.067 0-2.133 0-2.133 1.067-1.067 2.133 0 2.133 0 5.333 6.4 7.467 14.933 7.467 24.533 0 7.467-2.133 16-5.333 24.533-1.066 1.067-1.066 1.067-2.133 1.067z"/>
  </g>
  <path d="M267.733 11.733V38.4c0 6.4-5.333 11.733-11.733 11.733S243.2 44.8 243.2 38.4V11.733C244.267 5.333 249.6 0 256 0s11.733 5.333 11.733 11.733z" fill="#66c6b9"/>
  <path d="M153.6 36.267l12.8 23.467c3.2 5.333 1.067 12.8-4.267 17.067-6.4 3.2-13.867 1.067-17.067-4.267l-12.8-23.467c-3.2-6.4-1.067-13.867 4.267-17.067 6.4-3.2 13.867-1.067 17.067 4.267z" fill="#415a6b"/>
  <path d="M66.133 114.133L89.6 128c5.333 3.2 7.467 10.667 4.267 17.067-3.2 6.4-10.667 7.467-17.067 4.267l-23.467-12.8c-5.333-3.2-7.467-10.667-4.267-17.067 4.267-6.4 11.734-8.534 17.067-5.334z" fill="#66c6b9"/>
  <path d="M29.867 226.133h26.667c6.4 0 11.733 5.333 11.733 11.733s-5.333 12.8-11.733 12.8H29.867c-6.4 0-11.733-5.333-11.733-12.8-.001-6.399 5.333-11.733 11.733-11.733z" fill="#415a6b"/>
  <path fill="#66c6b9" d="M54.4 340.267l23.467-12.8c5.333-3.2 12.8-1.067 17.067 4.267 3.2 6.4 1.067 13.867-4.267 17.067L67.2 361.6c-6.4 3.2-13.867 1.067-17.067-4.267-4.266-6.4-2.133-13.866 4.267-17.066zM445.867 361.6L422.4 348.8c-5.333-3.2-7.467-10.667-4.267-17.067 3.2-6.4 10.667-7.467 17.067-4.267l23.467 12.8c5.333 3.2 7.467 10.667 4.267 17.067-4.267 5.334-11.734 7.467-17.067 4.267z"/>
  <path d="M482.133 250.667h-26.667c-6.4 0-11.733-5.333-11.733-11.733s5.333-12.8 11.733-12.8h26.667c6.4 0 11.733 5.333 11.733 12.8.001 6.399-5.333 11.733-11.733 11.733z" fill="#415a6b"/>
  <path d="M457.6 135.467l-22.4 13.867c-5.333 3.2-12.8 1.067-17.067-4.267-3.2-6.4-1.067-13.867 4.267-17.067l23.467-12.8c5.333-3.2 12.8-1.067 17.067 4.267 3.199 5.333 1.066 12.8-5.334 16z" fill="#66c6b9"/>
  <path d="M379.733 49.067l-12.8 23.467c-3.2 5.333-10.667 7.467-17.067 4.267S342.4 66.133 345.6 59.733l12.8-23.467c3.2-5.333 10.667-7.467 17.067-4.267 5.333 3.201 7.466 10.668 4.266 17.068z" fill="#415a6b"/>
</svg>
