<svg xmlns="http://www.w3.org/2000/svg" viewBox="0 0 480 480">
  <path fill="#695a69" d="M328.421 25.263h37.895v37.895h-37.895z"/>
  <path d="M12.632 202.105V404.21h176.842V252.632h101.052V404.21h176.842V202.105H12.632zm138.947 50.527V353.685H63.158V240H151.58v12.632zm176.842 88.421V240H416.843v113.685H328.421v-12.632z" fill="#f2d057"/>
  <path fill="#bf515a" d="M416.842 63.158H63.158L0 202.105h480z"/>
  <path fill="#95ffff" d="M75.789 341.053h50.527l-50.527-50.527z"/>
  <path fill="#80d7f0" d="M126.316 341.053h12.631v-50.527H75.789z"/>
  <path fill="#6eb1e2" d="M75.789 252.632h63.158v25.263H75.789z"/>
  <path d="M75.789 240H63.158v113.685H151.58V240H75.789zm63.158 101.053H75.789v-50.526h63.158v50.526zm0-63.158H75.789v-25.263h63.158v25.263z" fill="#695a69"/>
  <path fill="#95ffff" d="M341.053 290.526v50.527h50.526z"/>
  <path fill="#80d7f0" d="M404.211 341.053v-50.527h-63.158l50.526 50.527z"/>
  <path fill="#6eb1e2" d="M341.053 252.632h63.158v25.263h-63.158z"/>
  <path d="M404.211 353.684h12.632V240H328.421v113.685h75.79zm-63.158-101.052h63.158v25.263h-63.158v-25.263zm0 37.894h63.158v50.526h-63.158v-50.526z" fill="#695a69"/>
  <path fill="#944851" d="M290.526 252.632H189.474V454.737h101.052V404.21z"/>
  <path fill="#e9a868" d="M12.632 404.21h176.842v50.526H12.632zM290.526 404.21h176.842v50.526H290.526z"/>
</svg>
