<svg viewBox="0 -71 512 512" xmlns="http://www.w3.org/2000/svg">
  <path d="M347.309 336.758l-45.52-32.024c-6.695-16.738-17.851-31.613-30.488-38.906-20.485-11.828-37.09.727-37.09 28.04s16.605 59.038 37.09 70.866c9.707 5.606 18.543 5.727 25.152 1.403zm0 0" fill="#23292e"/>
  <path d="M512 236.719a42.97 42.97 0 0 0-2.508-14.469l-.383-1.07a78.945 78.945 0 0 0-30.96-39.375l-50.97-33.508-16.304-39.82a150.416 150.416 0 0 0-63.547-73.008 181.408 181.408 0 0 0-124.836-21.485l-27.851 5.246-13.684-2.156a14.896 14.896 0 0 0-9.336 1.555c-.266.14-.52.3-.777.457L7.855 114.734C3.22 117.258 0 122.168 0 127.934v15.16a43.85 43.85 0 0 0 21.953 37.992l46.348 56.973a109.953 109.953 0 0 1 74.844 12.859l197.21 113.637c.954.55 1.965.761 2.942.707 0 0 .883-.102 1.215-.2l6.023-1.085a346.87 346.87 0 0 0 116.18-43.489 104.581 104.581 0 0 0 44.77-54.324c.132-.281.245-.574.331-.887.059-.168.125-.332.184-.5l-.063-.086a5.52 5.52 0 0 0 .063-.812zm0 0" fill="#7192c4"/>
  <path d="M346.188 317.918a78.939 78.939 0 0 0-31.07-39.695l-51.552-33.891-15.457-37.75c-13.02-31.797-35.894-58.824-65.738-75.852A181.43 181.43 0 0 0 58.88 110.02l-27.852 5.246-13.683-2.157C8.234 111.672 0 118.711 0 127.934v15.16a43.85 43.85 0 0 0 21.953 37.992l46.348 56.973a109.953 109.953 0 0 1 74.844 12.859l197.21 113.637c3.57 2.058 8.032-.52 8.032-4.64v-28.388c0-4.625-.66-9.25-2.2-13.609zm0 0" fill="#304e75"/>
  <path d="M308.39 336.695c0 27.313-16.605 39.864-37.09 28.04-20.484-11.829-37.09-43.555-37.09-70.868S250.817 254 271.3 265.828c20.485 11.824 37.09 43.555 37.09 70.867zm0 0" fill="#2e373d"/>
  <path d="M289.535 325.809c0 13.43-8.164 19.601-18.234 13.785-10.07-5.817-18.239-21.414-18.239-34.84 0-13.43 8.165-19.602 18.239-13.79 10.07 5.817 18.234 21.415 18.234 34.845zm0 0" fill="#cecece"/>
  <path d="M281.191 320.988c0 7.285-4.43 10.633-9.89 7.48-5.461-3.156-9.89-11.616-9.89-18.898 0-7.285 4.425-10.632 9.89-7.476 5.46 3.152 9.89 11.613 9.89 18.894zm0 0" fill="#627681"/>
  <path d="M82.027 207.578c0 27.313-16.605 39.867-37.09 28.04-20.48-11.825-37.085-43.552-37.085-70.864s16.605-39.867 37.085-28.04c20.489 11.825 37.09 43.556 37.09 70.864zm0 0" fill="#2e373d"/>
  <path d="M63.176 196.695c0 13.43-8.164 19.602-18.235 13.785-10.074-5.812-18.238-21.414-18.238-34.843 0-13.426 8.164-19.602 18.238-13.785 10.07 5.816 18.235 21.414 18.235 34.843zm0 0" fill="#cecece"/>
  <path d="M54.832 191.879c0 7.281-4.43 10.629-9.89 7.476-5.465-3.156-9.891-11.617-9.891-18.898 0-7.285 4.426-10.633 9.89-7.477 5.461 3.153 9.891 11.614 9.891 18.899zm0 0" fill="#627681"/>
  <path d="M360.18 281.95c8.257 10.925 12.187 26.331 8.773 34.417-3.418 8.082-12.883 5.781-21.14-5.14-8.262-10.922-12.192-26.332-8.774-34.414 3.414-8.086 12.879-5.786 21.14 5.136zm0 0M495.36 203.113c8.261 10.926 12.19 26.332 8.773 34.418-3.414 8.082-12.88 5.781-21.14-5.14-8.259-10.922-12.188-26.332-8.774-34.414 3.418-8.086 12.883-5.786 21.14 5.136zm0 0" fill="#fff"/>
  <path d="M274.258 238.059l144.152-84.614-29.097-59.886c-5.11-10.512-18.016-14.547-28.2-8.82l-99.972 56.23c-15.118 8.504-20.98 27.324-13.364 42.902zm0 0" fill="#304e75"/>
  <path d="M251.11 236.082l-18.524-34.668a170.566 170.566 0 0 0-75.895-73.031 92.676 92.676 0 0 0-86.847 3.097zm0 0" fill="#243b58"/>
  <path d="M407.055 146.012l-18.524-34.664c-5.566-10.422-12.261-20.098-19.765-29.059-2.614.297-5.211 1.074-7.653 2.45l-30.504 17.156zm0 0" fill="#59718b"/>
  <path d="M91.332 224.465l-4.805-56.961 53.043 30.625-30.398-8.32 1.719 31.222 30.879 15.051zm0 0" fill="#23292e"/>
  <path d="M162.793 2.145L154.887.777l-.008.004c-12.055-2.07-24.8-.058-36.02 6.418L31.11 57.863C11.094 69.418 6.703 96.418 22.02 113.72l9.008 1.543L194.641 19.23c-8.578-9.476-19.91-15.28-31.848-17.085zm0 0" fill="#304e75"/>
  <path d="M31.027 115.266c-15.316-17.301-10.925-44.301 9.086-55.86l87.754-50.664c21.95-12.672 49.766-8.3 66.774 10.485zm0 0" fill="#4d7eb7"/>
</svg>
