<svg xmlns="http://www.w3.org/2000/svg" viewBox="0 0 512.327 512.327">
  <g fill="#ffd15c">
    <path d="M391.395 112.327s-2.133 8.533-3.2 13.867c-1.067 6.4-4.267 25.6-16 35.2l-13.867 33.067-37.333-10.667s8.533-41.6 9.6-48c1.067-6.4-2.133-21.333-1.067-37.333 1.067-14.934 57.6-9.601 61.867 13.866z"/>
    <path d="M391.395 112.327s-2.133 8.533-3.2 13.867c-1.067 6.4-4.267 25.6-16 35.2v38.4c-19.2 60.8-69.333 44.8-50.133-16 0 0 8.533-41.6 9.6-48 1.067-6.4-2.133-21.333-1.067-37.333 0-14.934 56.533-9.601 60.8 13.866z"/>
  </g>
  <path d="M330.595 96.327l-8.533-9.6s7.467-29.867 32-33.067 45.867 13.867 44.8 40.533c0 0 2.133 6.4-1.067 10.667s-53.334 4.267-67.2-8.533z" fill="#f05540"/>
  <path d="M322.061 86.727s5.333 5.333 12.8 7.467 49.067 4.267 57.6 6.4c8.533 2.133 5.333-4.267 6.4-7.467 0 0 3.2 12.8 3.2 17.067 0 4.267-3.2 4.267-6.4 4.267s-38.4-3.2-51.2-6.4c-12.8-3.2-13.867-2.133-17.067-3.2-4.267-1.067-8.533-7.467-8.533-10.667-1.066-2.134 3.2-7.467 3.2-7.467z" fill="#f3705a"/>
  <path d="M371.128 162.46s-5.333 5.333-16 4.267-23.467-17.067-25.6-29.867c0 0-2.133 17.067 13.867 36.267 5.333 6.4 11.733 10.667 17.067 13.867l10.666-24.534z" fill="#f7b64c"/>
  <path d="M343.395 170.994s9.6 14.933 6.4 28.8c0 0 3.2-12.8 3.2-18.133 0-5.333 8.533-14.933 8.533-14.933l12.8 22.4-29.867 100.267-36.267-8.533 8.533-110.933 26.668 1.065z" fill="#ced6e0"/>
  <path d="M288.995 511.26c1.067-6.4 7.467-27.733 11.733-39.467 5.333-12.8 12.8-30.933 12.8-30.933s2.133 1.067 5.333 11.733c3.2 9.6 14.933 50.133 17.067 58.667h57.6c4.267-22.4 3.2-99.2 3.2-99.2l-51.2-65.067s-81.067 11.733-98.133 51.2c-16 36.267-10.667 102.4-9.6 114.133h51.2v-1.066z" fill="#415a6b"/>
  <ellipse transform="rotate(-95.509 329.492 116.622)" cx="329.494" cy="116.626" rx="10.667" ry="5.333" fill="#ffd15c"/>
  <path d="M311.395 161.394s-2.133-1.067-9.6 3.2c-8.533 4.267-23.467 5.333-27.733 5.333l-4.267 1.067s21.333 43.733 17.067 66.133c-4.267 22.4-46.933 137.6-52.267 151.467-4.267 13.867-6.4 20.267-6.4 20.267s24.533 19.2 35.2 22.4c10.667 3.2 19.2 5.333 26.667-10.667s33.067-83.2 36.267-112c2.133-29.867-9.6-141.867-9.6-141.867l-5.334-5.333z" fill="#344a5e"/>
  <path d="M296.461 313.927s-14.933-2.133-19.2-18.133c-3.2-17.067 19.2 3.2 19.2 18.133z" fill="#ffd15c"/>
  <path d="M376.461 156.06s-4.267 7.467-14.933 9.6l-1.067 25.6 16-26.667v-8.533z" fill="#e8eae9"/>
  <path d="M420.195 426.994s-3.2 5.333-21.333 8.533c-18.133 3.2-28.8 4.267-28.8 4.267s-17.067 3.2-21.333-8.533c-4.267-11.733-23.467-77.867-23.467-107.733 0-30.933 57.6-156.8 57.6-156.8s10.667 5.333 14.933 9.6l7.467 7.467c4.267 4.267 18.133 8.533 18.133 8.533s-18.133 10.667-26.667 35.2c-9.6 23.466 23.467 199.466 23.467 199.466z" fill="#344a5e"/>
  <g fill="#415a6b">
    <path d="M430.861 225.394c0 22.4-3.2 74.667-14.933 91.733-5.333 7.467-8.533 12.8-11.733 16-3.2 3.2-6.4 4.267-9.6 5.333-4.267 1.067-41.6-3.2-69.333-6.4-17.067-2.133-29.867-3.2-29.867-3.2l-2.133-41.6s22.4 1.067 40.533 1.067h18.133c9.6 0 21.333-8.533 25.6-9.6 3.2-1.067 3.2-14.933 7.467-24.533 3.2-9.6 11.733-26.667 11.733-27.733 8.533-23.467 26.667-35.2 26.667-35.2s7.466 10.666 7.466 34.133z"/>
    <path d="M376.461 158.194s-4.267 9.6-6.4 13.867c-2.133 4.267-13.867 26.667-17.067 33.067s-11.733 21.333-20.267 54.4c-8.533 34.133-7.467 64-7.467 64s9.6-44.8 25.6-73.6 37.333-59.733 37.333-59.733l-8.533-5.333 8.533-1.067s0-8.533-3.2-13.867c-3.2-5.333-6.4-7.467-7.467-9.6l-1.065-2.134z"/>
  </g>
  <path d="M329.528 142.194s3.2 20.267 13.867 28.8l-2.133 3.2-4.267-2.133s-9.6 6.4-9.6 19.2c0 0-5.333-21.333-5.333-28.8-.001-6.401 4.266-17.067 7.466-20.267z" fill="#e8eae9"/>
  <g fill="#415a6b">
    <path d="M327.395 146.46s-4.267 3.2-7.467 8.533c-3.2 5.333-8.533 6.4-8.533 6.4l-6.4 10.667 6.4 3.2-10.667 2.133s16 75.733 20.267 94.933c5.333 18.133 4.267 36.267 4.267 36.267s7.467-55.467 4.267-86.4c-2.134-33.066-6.401-63.999-2.134-75.733z"/>
    <path d="M359.395 297.927s-13.867 1.067-32 2.133c-20.267 1.067-44.8 1.067-59.733-1.067-3.2-1.067-6.4-1.067-8.533-2.133-22.4-8.533-18.133-42.667-18.133-42.667s14.933-58.667 20.267-70.4c5.333-11.733 9.6-11.733 9.6-11.733s21.333 43.733 17.067 66.133c-1.067 3.2-2.133 8.533-4.267 14.933 0 0 9.6 4.267 20.267 7.467 10.667 3.2 9.6 0 16 0h6.4c11.733 0 33.067 2.133 33.067 2.133 4.264 7.468-.002 35.201-.002 35.201z"/>
  </g>
  <path d="M293.261 259.527s-4.267-19.2-5.333-20.267c-1.067-2.133-2.133-2.133-3.2 0l-3.2-5.333s-4.267-1.067-3.2 4.267c0 0-3.2-1.067-3.2 3.2s2.133 6.4 2.133 6.4-3.2 1.067-1.067 8.533c2.133 7.467 2.133 9.6 2.133 9.6l14.934-6.4z" fill="#ffd15c"/>
  <g fill="#f7b64c">
    <path d="M285.795 242.46c-1.067-2.133-1.067-3.2-1.067-3.2s0 1.067 1.067 3.2c0 1.067 0 2.133 1.067 3.2 0 1.067 1.067 2.133 1.067 3.2 0 1.067 0 1.067 1.067 2.133 0 1.067 1.067 1.067 1.067 1.067 0 1.067 1.067 2.133 1.067 3.2 0 0 0 1.067 1.067 1.067v-1.067c0-1.067-1.067-2.133-1.067-3.2 0 0 0-1.067-1.067-1.067 0-1.067 0-1.067-1.067-2.133 0-1.067-1.067-2.133-1.067-3.2-1.068-2.133-1.068-3.2-2.134-3.2zM279.395 237.127s0 1.067 0 0c1.067 1.067 1.067 2.133 2.133 3.2 0 1.067 1.067 2.133 1.067 3.2 0 1.067 0 1.067 1.067 2.133 0 1.067 0 1.067 1.067 2.133 0 1.067 1.067 2.133 1.067 3.2 0 1.067 1.067 2.133 1.067 3.2 1.067 2.133 1.067 3.2 1.067 3.2s-1.067-1.067-1.067-3.2c0-1.067-1.067-2.133-1.067-3.2 0-1.067-1.067-2.133-1.067-3.2 0-1.067 0-1.067-1.067-2.133 0-1.067 0-1.067-1.067-2.133 0-1.067-1.067-2.133-1.067-3.2-2.133-2.133-2.133-3.2-2.133-3.2zM277.261 247.794s1.067 0 0 0h2.134v1.067c0 1.067 0 2.133 1.067 2.133 0 1.067 0 2.133 1.067 2.133v4.266s0-1.067-1.067-2.133c0-1.067 0-1.067-1.067-2.133 0-1.067 0-2.133-1.067-2.133 0-1.067 0-2.133-1.067-2.133v-1.067c2.134 0 1.067 0 0 0 1.067 0 0 0 0 0zM414.861 312.86s0-1.067-2.133-3.2c-2.133-1.067-10.667-6.4-13.867-9.6-3.2-3.2-8.533-7.467-11.733-9.6-3.2-2.133-5.333-1.067-10.667-1.067h-3.2v16h5.333l2.133-2.133c2.133-1.067 6.4 0 7.467 0 0 0 14.933 8.533 17.067 8.533 0 0 8.533 7.467 13.867 3.2l-4.267-2.133z"/>
  </g>
  <path d="M372.195 353.394l83.2-16s58.667-22.4 43.733-89.6l-117.333 66.133-107.734 18.133-3.2 48 101.334-26.666z" fill="#66c6b9"/>
  <path d="M327.395 291.527s23.467 12.8 27.733 14.933c4.267 2.133 9.6 4.267 17.067 4.267 7.467 0 19.2 4.267 22.4 5.333 4.267 1.067 7.467-2.133 4.267-5.333-3.2-4.267-7.467-5.333-7.467-5.333l-12.8-3.2s3.2-3.2 5.333-4.267c2.133-1.067 6.4 0 7.467 0 0 0 11.733 8.533 16 10.667 0 0 8.533 10.667 14.933 3.2l-4.267-3.2s-1.067-1.067-3.2-2.133c-2.133-1.067-9.6-7.467-13.867-10.667-3.2-3.2-8.533-8.533-11.733-10.667-3.2-2.133-4.267-1.067-10.667-1.067-5.333 0-17.067 0-21.333-1.067-4.267-1.067-17.067-5.333-17.067-5.333l-16 3.2 3.201 10.667z" fill="#ffd15c"/>
  <g fill="#415a6b">
    <path d="M133.261 511.26l4.267-14.933c0 6.4 1.067 11.733 1.067 14.933h82.133c1.067-4.267 2.133-16 0-33.067-3.2-22.4-22.4-76.8-22.4-76.8l3.2-21.333-70.4 2.133s-72.533 23.467-80 54.4c-6.4 27.733-1.067 67.2 0 75.733h82.133v-1.066z"/>
    <path d="M133.261 511.26l4.267-14.933c0 6.4 1.067 11.733 1.067 14.933h82.133c1.067-4.267 2.133-16 0-33.067-3.2-22.4-24.533-103.467-24.533-103.467l-65.067 6.4s-72.533 23.467-80 54.4c-6.4 27.733-1.067 67.2 0 75.733l82.133.001z"/>
  </g>
  <g fill="#344a5e">
    <path d="M183.395 149.66s11.733 10.667 16 21.333c4.267 10.667 3.2 16 5.333 18.133 2.133 3.2 5.333 4.267 6.4 7.467 1.067 3.2 14.933 24.533 14.933 24.533s12.8 5.333 14.933 9.6c2.133 4.267 2.133 6.4 2.133 6.4s3.2-1.067 6.4 1.067c3.2 2.133 5.333 2.133 8.533 4.267 4.267 1.067 4.267 0 5.333 3.2 2.133 2.133 30.933 16 40.533 19.2 9.6 3.2 37.333 12.8 37.333 12.8s-12.8 2.133-9.6 44.8c0 0-17.067-6.4-32-12.8-16-6.4-30.933-8.533-40.533-13.867-8.533-5.333-17.067-9.6-32-14.933-13.867-5.333-23.467-11.733-23.467-11.733s-24.531-114.133-20.264-119.467z"/>
    <path d="M211.128 423.794l-2.133-1.067c-6.4-25.6-12.8-49.067-12.8-49.067h-4.267c6.4-24.533 4.267-70.4 0-91.733-6.4-40.533-13.867-83.2-24.533-101.333-10.667-18.133-22.4-39.467-22.4-39.467s28.8 0 38.4 7.467c0 0 12.8 13.867 18.133 37.333 5.333 22.4 5.333 72.533 5.333 80 0 7.467 2.133 61.867 5.333 76.8 2.133 11.733 6.4 54.4 8.533 73.6.001 5.333-4.266 8.533-9.599 7.467z"/>
  </g>
  <path d="M200.461 79.26s-5.333 8.533-6.4 9.6c0 0 0 2.133 2.133 6.4s4.267 9.6 4.267 9.6 1.067 4.267-3.2 5.333c-4.267 1.067-6.4 3.2-6.4 4.267 0 1.067 3.2 4.267 0 6.4 0 0 2.133 2.133 0 5.333s-6.4 4.267-6.4 9.6c-1.067 4.267-2.133 10.667-16 9.6-13.867-1.067-18.133 1.067-20.267 5.333s-5.333 19.2-1.067 35.2l4.267 16-56.533-66.133s10.667-13.867 12.8-25.6 8.533-54.4 8.533-54.4l84.267 23.467z" fill="#ffd15c"/>
  <path d="M181.261 221.127c-1.067-2.133 0-5.333 0-7.467-7.467-14.933-13.867-28.8-17.067-44.8v-2.133l-6.4-7.467-12.8 19.2s-2.133-4.267-7.467-6.4c-4.267-2.133-30.933-22.4-30.933-22.4l-19.2 1.067 40.533 236.8h29.867c29.867 0 40.533-9.6 40.533-9.6s1.068-91.733-17.066-156.8z" fill="#ced6e0"/>
  <path d="M212.195 342.727s-11.733-52.267-19.2-69.333c-7.467-18.133-18.133-70.4-24.533-82.133s-20.267-35.2-20.267-35.2l2.133-8.533c1.067 0 2.133-1.067 3.2-1.067 6.4 12.8 32 61.867 43.733 107.733 13.867 51.2 14.934 88.533 14.934 88.533z" fill="#415a6b"/>
  <path d="M90.595 132.594s-6.4 6.4-14.933 10.667-11.733 3.2-19.2 7.467-30.933 19.2-36.267 30.933c0 0 10.667-13.867 23.467-8.533 13.867 5.333 37.333 57.6 39.467 73.6 2.133 16-42.667 128-54.4 165.333s-8.533 65.067 3.2 72.533 61.867 43.733 89.6 12.8c27.733-30.933 37.333-154.667 37.333-154.667s2.133-55.467-13.867-90.667-54.4-119.466-54.4-119.466z" fill="#344a5e"/>
  <path d="M93.795 128.327l6.4-5.333s7.467 19.2 16 27.733c8.533 8.533 22.4 20.267 22.4 20.267s-5.333 1.067-10.667-1.067l-10.667 11.733s-24.533-51.2-23.466-53.333z" fill="#e8eae9"/>
  <path d="M104.461 114.46s13.867-5.333 22.4-24.533c7.467-19.2 19.2-8.533 22.4-5.333 3.2 4.267 4.267 14.933 2.133 20.267h8.533s0-22.4 7.467-27.733c7.467-5.333 32 5.333 32 5.333s8.533-3.2 5.333-10.667c-3.2-7.467-76.8-34.133-86.4-29.867-9.6 5.333-21.333 14.933-19.2 23.467s6.4 25.6 6.4 34.133c.001 9.6-2.132 12.8-1.066 14.933z" fill="#344a5e"/>
  <ellipse transform="scale(-1) rotate(88.063 91.897 -144.47)" cx="139.668" cy="88.837" rx="16" ry="10.666" fill="#ffd15c"/>
  <path d="M88.461 51.527l-1.067-5.333s7.467-41.6 50.133-45.867 67.2 34.133 67.2 61.867c0 0-4.267 7.467-4.267 8.533-1.065 0-76.799 8.533-111.999-19.2z" fill="#f05540"/>
  <path d="M87.395 46.194s54.4 22.4 96 20.267c0 0 17.067 0 21.333-5.333 0 0-1.067 2.133 0 5.333s16 11.733 16 13.867c0 3.2-6.4 7.467-18.133 4.267-11.733-3.2-25.6-2.133-37.333-4.267-10.667-2.133-55.467-9.6-77.867-19.2-3.2 0-4.267-4.267-3.2-6.4 1.066-3.201 2.133-5.334 3.2-8.534z" fill="#f3705a"/>
  <path d="M154.595 285.127c-6.4-19.2-19.2-71.467-29.867-100.267s-24.533-46.933-24.533-52.267c-1.067-5.333 3.2-16 3.2-16s-11.733 14.933-16 19.2v1.067c-2.133 3.2-3.2 6.4-2.133 10.667 2.133 6.4 5.333 12.8 5.333 12.8l14.933 8.533-9.6 8.533s1.067 1.067 13.867 17.067 34.133 69.333 42.667 88.533c8.533 19.2 7.467 59.733 7.467 59.733s1.066-38.399-5.334-57.599z" fill="#415a6b"/>
  <path d="M152.461 146.46s9.6 16 9.6 19.2c0 3.2-7.467 8.533-7.467 8.533s-5.333 4.267-6.4 9.6c-1.067 5.333 1.067 16 1.067 16-2.133-9.6-4.267-16-5.333-24.533 1.067 0-2.133-25.6 8.533-28.8z" fill="#e8eae9"/>
  <path d="M152.461 146.46s9.6 16 9.6 19.2c0 3.2-7.467 8.533-7.467 8.533s-5.333 4.267-6.4 9.6c-1.067 5.333 1.067 16 1.067 16-2.133-9.6-4.267-16-5.333-24.533 1.067 0-2.133-25.6 8.533-28.8z" fill="#e8eae9"/>
  <path d="M158.861 145.394s-18.133-9.6-24.533-28.8c0 0 2.133 19.2 13.867 34.133v-1.067c1.066-2.133 3.2-3.2 10.666-4.266z" fill="#f7b64c"/>
  <path d="M71.395 448.327l119.467-27.733 144-129.067s51.2 61.867 120.533 45.867l-309.333 137.6c-.001 0-38.401 10.666-74.667-26.667z" fill="#e8eae9"/>
  <path d="M128.995 373.66l19.2 11.733s8.533 2.133 14.933 4.267c4.267 1.067 9.6 5.333 12.8 7.467 1.067 1.067 2.133 2.133 2.133 4.267l1.067 6.4s9.6 7.467 12.8 10.667c3.2 3.2 7.467 3.2 6.4 8.533 0 0 2.133 1.067 2.133 4.267s-4.267 5.333-4.267 5.333-2.133 3.2-6.4 4.267c-4.267 1.067-13.867 2.133-13.867 2.133s-3.2 2.133-9.6 3.2c-6.4 1.067-12.8-1.067-18.133-2.133-6.4-1.067-13.867-4.267-14.933-7.467-1.067-3.2-4.267-7.467-5.333-10.667-1.067-3.2-1.067-7.467-1.067-7.467s-4.267-5.333-7.467-7.467c-3.2-2.133-23.467-17.067-23.467-17.067s21.334-28.799 33.068-20.266z" fill="#ffd15c"/>
  <g fill="#f7b64c">
    <path d="M199.395 428.06s-1.067 2.133-2.133 3.2c-1.067 1.067-4.267 2.133-6.4 1.067-2.133-1.067-10.667-6.4-13.867-7.467-3.2-2.133-7.467-6.4-10.667-7.467-2.133-2.133-6.4-3.2-6.4-3.2s2.133 3.2 4.267 4.267c2.133 1.067 7.467 3.2 10.667 5.333s8.533 5.333 10.667 6.4c2.133 1.067 5.333 3.2 8.533 3.2 3.199.001 4.266-3.199 5.333-5.333zM197.261 437.66s-1.067 1.067-5.333 2.133c-3.2 1.067-9.6 0-11.733 0-2.133 0-4.267 1.067-7.467-1.067-3.2-1.067-13.867-8.533-14.933-9.6-1.067-1.067-6.4-2.133-6.4-2.133s3.2 2.133 7.467 4.267 9.6 5.333 11.733 6.4 4.267 3.2 8.533 3.2c4.267-1.066 13.867 1.067 18.133-3.2zM168.461 444.06c-5.333-2.133-12.8-5.333-14.933-6.4-3.2-1.067-8.533-3.2-7.467-2.133s9.6 5.333 12.8 6.4c3.2 1.067 10.667 5.333 16 3.2 1.067 0 1.067-1.067 1.067-1.067 0 1.067-2.133 2.134-7.467 0zM163.128 392.86s1.067 0 0 0c1.067 1.067 1.067 1.067 1.067 2.133 0 0 0 1.067 1.067 1.067 0 1.067 1.067 2.133 2.133 3.2l1.067 1.067s1.067 1.067 2.133 1.067c1.067 1.067 2.133 2.133 3.2 2.133 1.067 1.067 2.133 1.067 3.2 2.133 1.067 1.067 2.133 1.067 2.133 1.067l1.067 1.067h-1.067c-1.067 0-1.067-1.067-2.133-1.067-1.067-1.067-2.133-1.067-3.2-2.133-1.067 0-1.067-1.067-2.133-1.067-1.067 0-1.067-1.067-2.133-1.067s-1.067-1.067-2.133-1.067-1.067-1.067-1.067-1.067c-1.067-1.067-1.067-2.133-2.133-3.2v-1.067c-.001-2.132-.001-2.132-1.068-3.199z"/>
  </g>
  <path d="M135.395 376.86s-11.733 2.133-19.2 14.933c-6.4 13.867-7.467 34.133-7.467 34.133s-34.133-16-40.533-23.467c-3.2-4.267-16-17.067-25.6-29.867-7.467-9.6-14.933-19.2-17.067-24.533-4.267-11.733-4.267-38.4-3.2-43.733 1.067-4.267-7.467-34.133-10.667-44.8-3.2-10.667 3.2-39.467 3.2-39.467s-1.067-26.667 5.333-38.4c0 0 10.667-13.867 23.467-8.533 13.867 5.333 37.333 57.6 39.467 73.6 2.133 8.533-2.133 13.867-2.133 25.6s-6.4 22.4-3.2 33.067c3.2 11.733 0 17.067 3.2 22.4 2.133 4.267 18.133 20.267 26.667 25.6 7.466 5.334 27.733 23.467 27.733 23.467z" fill="#415a6b"/>
</svg>
